<svg xmlns="http://www.w3.org/2000/svg" viewBox="0 0 64 64"><defs><style>.a{fill:#000842;}.b{fill:#fff;}.c{fill:#f6ae2d;}.d{fill:#000882;}</style></defs><rect class="a" width="64" height="64"/><path class="b" d="M48.53,30.06l-2,0A5.73,5.73,0,0,0,43,25.34a10.24,10.24,0,0,0,.31-2.46c0-5.2-6.3-9.44-11.15-9.44a9,9,0,0,0-8.59,7.45,8.29,8.29,0,0,0-3.1-.59c-5.05,0-9.16,4.41-9.16,9.84a11.28,11.28,0,0,0,.14,1.72A9,9,0,0,0,8,39c0,4.83,3.67,8.77,8.17,8.77l32.35.15c4.58,0,8.31-4,8.31-8.92S53.11,30.06,48.53,30.06Z"/><rect class="c" x="12.55" y="38.53" width="21.11" height="5" rx="1.5"/><rect class="d" x="14.69" y="33.74" width="8" height="3" rx="1.5"/><rect class="c" x="15.74" y="26.95" width="15" height="5" rx="1.5"/><rect class="d" x="36.34" y="39.53" width="15.32" height="3" rx="1.5"/><rect class="d" x="26" y="33.74" width="15.32" height="3" rx="1.5"/><rect class="d" x="33.42" y="28.31" width="8" height="3" rx="1.5"/><rect class="d" x="26.74" y="21.91" width="11.44" height="3" rx="1.5"/></svg>
