<svg xmlns="http://www.w3.org/2000/svg" viewBox="0 0 32 32"><defs><style>.a{fill:#fff;}.b{fill:#f6ae2d;}</style></defs><rect class="a" width="32" height="32"/><path class="b" d="M25.89,16.09h-2.7A3.82,3.82,0,0,0,21,12.94a7.57,7.57,0,0,0,.19-1.64c0-3.48-2.42-6.3-5.4-6.3-2.57,0-4.75,2.1-5.28,5a4.68,4.68,0,0,0-1.91-.4C5.53,9.57,3,12.52,3,16.14a7.55,7.55,0,0,0,.1,1.15A6.17,6.17,0,0,0,1,22c0,3.23,2.25,5.86,5,5.86l19.87.1C28.71,28,31,25.33,31,22S28.71,16.09,25.89,16.09Z"/><rect class="a" x="6" y="19.19" width="21" height="4.81" rx="2.4"/></svg>